<?xml version="1.0"?><svg width="16" height="12" xmlns="http://www.w3.org/2000/svg">
 <title>blue rain drop</title>
 <g>
  <title>Layer 1</title>
  <path d="m897,732.979858l0,50.718201c-3.502686,9.375122 -0.4776,22.438843 -4.776367,32.275085c-19.742188,165.986633 -166.853394,316.75769 -337.527954,345.80542c-17.354004,6.608643 -37.892273,6.455078 -55.723969,9.221436l-65.276642,0c-17.831665,-2.766357 -38.369934,-2.612793 -55.723938,-9.221436c-184.048294,-30.584595 -333.939377,-201.796631 -342.304337,-379.617432l0,-52.255066c5.831909,-34.734192 13.249565,-70.851685 27.463947,-104.049011c14.392712,-26.742249 29.215275,-53.330811 46.171284,-78.382568l54.131844,-70.697968c121.0802,-138.93692 227.114929,-288.171112 306.879822,-450.776489l21.97113,44.954697c65.913544,154.997665 169.87851,292.243973 283.396149,421.190933c12.259277,17.367126 25.473816,34.273163 39.802795,50.718109c21.334351,31.6604 42.19104,63.628235 58.908203,98.362427c11.463257,29.35498 18.627747,61.015442 22.608032,91.753662z" fill="#ffffff" id="path412"/>
 </g>
</svg>